name Walk10.mot
datacolumns 19
datarows 22
range 0.78000000 0.80100000
endheader

                time	   L_ground_force_vx	   L_ground_force_vy	   L_ground_force_vz	   L_ground_force_px	   L_ground_force_py	   L_ground_force_pz	   R_ground_force_vx	   R_ground_force_vy	   R_ground_force_vz	   R_ground_force_px	   R_ground_force_py	   R_ground_force_pz	   L_ground_torque_x	   L_ground_torque_y	   L_ground_torque_z	   R_ground_torque_x	   R_ground_torque_y	   R_ground_torque_z	
          0.78000000	         -0.94380712	         79.21584786	         15.64434913	          0.00232144	          0.00000000	         -0.00092952	         -0.00000000	          0.00000000	          0.00000000	         -0.00000000	          0.00000000	         -0.00000000	          0.00000000	         -0.01059368	          0.00000000	          0.00000000	          0.00000000	          0.00000000	
          0.78100000	         -1.88148774	         87.59081963	         16.71268515	         -0.01443755	          0.00000000	          0.00574543	         -0.00000000	          0.00000000	          0.00000000	         -0.00000000	          0.00000000	         -0.00000000	          0.00000000	          0.00706328	          0.00000000	          0.00000000	          0.00000000	          0.00000000	
          0.78200000	         -2.85360511	         96.20117929	         17.79531639	         -0.03113184	          0.00000000	          0.01240439	         -0.00000000	         -0.00000000	          0.00000000	         -0.00000000	          0.00000000	         -0.00000000	          0.00000000	          0.02572602	          0.00000000	          0.00000000	          0.00000000	          0.00000000	
          0.78300000	         -3.86015784	        105.03665334	         18.88939883	         -0.04771163	          0.00000000	          0.01902828	         -0.00000000	         -0.00000000	          0.00000000	         -0.00000000	          0.00000000	         -0.00000000	          0.00000000	          0.04542149	          0.00000000	          0.00000000	          0.00000000	          0.00000000	
          0.78400000	         -4.90110520	        114.08548021	         19.99181208	         -0.06412703	          0.00000000	          0.02559794	         -0.00000000	         -0.00000000	          0.00000000	         -0.00000000	          0.00000000	         -0.00000000	          0.00000000	          0.06617629	          0.00000000	          0.00000000	          0.00000000	          0.00000000	
          0.78500000	         -5.97637623	        123.33434512	         21.09914914	         -0.08032932	          0.00000000	          0.03209466	         -0.00000000	         -0.00000000	          0.00000000	         -0.00000000	          0.00000000	         -0.00000000	          0.00000000	          0.08801685	          0.00000000	          0.00000000	          0.00000000	          0.00000000	
          0.78600000	         -7.08590023	        132.76839694	         22.20771360	         -0.09627302	          0.00000000	          0.03850102	         -0.00000000	         -0.00000000	          0.00000000	         -0.00000000	          0.00000000	         -0.00000000	          0.00000000	          0.11096981	          0.00000000	          0.00000000	          0.00000000	          0.00000000	
          0.78700000	         -8.22964298	        142.37133301	         23.31352235	         -0.11191715	          0.00000000	          0.04480132	         -0.00000000	         -0.00000000	          0.00000000	         -0.00000000	          0.00000000	         -0.00000000	          0.00000000	          0.13506235	          0.00000000	          0.00000000	          0.00000000	          0.00000000	
          0.78800000	         -9.40763785	        152.12554326	         24.41231336	         -0.12722537	          0.00000000	          0.05098166	         -0.00000000	         -0.00000000	          0.00000000	         -0.00000000	          0.00000000	         -0.00000000	          0.00000000	          0.16032233	          0.00000000	          0.00000000	          0.00000000	          0.00000000	
          0.78900000	        -10.62001279	        162.01232834	         25.49956062	         -0.14216568	          0.00000000	          0.05702987	         -0.00000000	         -0.00000000	          0.00000000	         -0.00000000	          0.00000000	         -0.00000000	          0.00000000	          0.18677824	          0.00000000	          0.00000000	          0.00000000	          0.00000000	
          0.79000000	        -11.86701171	        172.01219524	         26.57049871	         -0.15671017	          0.00000000	          0.06293534	         -0.00000000	         -0.00000001	          0.00000000	         -0.00000000	          0.00000000	         -0.00000000	          0.00000000	          0.21445919	          0.00000000	          0.00000000	          0.00000000	          0.00000000	
          0.79100000	        -13.14900499	        182.10521405	         27.62015780	         -0.17083478	          0.00000000	          0.06868901	         -0.00000000	         -0.00000001	          0.00000000	         -0.00000000	          0.00000000	         -0.00000000	          0.00000000	          0.24339461	          0.00000000	          0.00000000	          0.00000000	          0.00000000	
          0.79200000	        -14.46648478	        192.27140543	         28.64340933	         -0.18451904	          0.00000000	          0.07428318	         -0.00000000	         -0.00000001	          0.00000000	         -0.00000000	          0.00000000	         -0.00000000	          0.00000000	          0.27361384	          0.00000000	          0.00000000	          0.00000000	          0.00000000	
          0.79300000	        -15.82004297	        202.49112053	         29.63502116	         -0.19774585	          0.00000000	          0.07971151	         -0.00000000	         -0.00000001	          0.00000000	         -0.00000000	          0.00000000	         -0.00000000	          0.00000000	          0.30514562	          0.00000000	          0.00000000	          0.00000000	          0.00000000	
          0.79400000	        -17.21033336	        212.74537698	         30.58972004	         -0.21050122	          0.00000000	          0.08496883	         -0.00000000	         -0.00000001	          0.00000000	         -0.00000000	          0.00000000	         -0.00000000	          0.00000000	          0.33801759	          0.00000000	          0.00000000	          0.00000000	          0.00000000	
          0.79500000	        -18.63802229	        223.01612515	         31.50225846	         -0.22277413	          0.00000000	          0.09005112	         -0.00000000	         -0.00000001	          0.00000000	         -0.00000000	          0.00000000	         -0.00000000	          0.00000000	          0.37225568	          0.00000000	          0.00000000	          0.00000000	          0.00000000	
          0.79600000	        -20.10373369	        233.28643166	         32.36748315	         -0.23455625	          0.00000000	          0.09495541	         -0.00000000	         -0.00000001	          0.00000000	         -0.00000000	          0.00000000	         -0.00000000	          0.00000000	          0.40788347	          0.00000000	          0.00000000	          0.00000000	          0.00000000	
          0.79700000	        -21.60799482	        243.54057942	         33.18040206	         -0.24584178	          0.00000000	          0.09967967	         -0.00000000	         -0.00000001	          0.00000000	         -0.00000000	          0.00000000	         -0.00000000	          0.00000000	          0.44492149	          0.00000000	          0.00000000	          0.00000000	          0.00000000	
          0.79800000	        -23.15118713	        253.76409104	         33.93624729	         -0.25662728	          0.00000000	          0.10422274	         -0.00000000	         -0.00000001	          0.00000000	         -0.00000000	          0.00000000	         -0.00000000	          0.00000000	          0.48338636	          0.00000000	          0.00000000	          0.00000000	          0.00000000	
          0.79900000	        -24.73350552	        263.94368840	         34.63053166	         -0.26691145	          0.00000000	          0.10858428	         -0.00000000	         -0.00000002	          0.00000000	         -0.00000000	          0.00000000	         -0.00000000	          0.00000000	          0.52328999	          0.00000000	          0.00000000	          0.00000000	          0.00000000	
          0.80000000	        -26.35492687	        274.06720415	         35.25909695	         -0.27669499	          0.00000000	          0.11276466	         -0.00000000	         -0.00000002	          0.00000000	         -0.00000000	          0.00000000	         -0.00000000	          0.00000000	          0.56463881	          0.00000000	          0.00000000	          0.00000000	          0.00000000	
          0.80100000	        -28.01518770	        284.12346256	         35.81815305	         -0.28598042	          0.00000000	          0.11676494	         -0.00000000	         -0.00000002	          0.00000000	         -0.00000000	          0.00000000	         -0.00000000	          0.00000000	          0.60743320	          0.00000000	          0.00000000	          0.00000000	          0.00000000	
